<svg xmlns="http://www.w3.org/2000/svg" version="1.1" xmlns:xlink="http://www.w3.org/1999/xlink" xmlns:svgjs="http://svgjs.com/svgjs" width="1439" height="558" preserveAspectRatio="none" viewBox="0 0 1439 558"><g mask="url(&quot;#SvgjsMask1002&quot;)" fill="none"><rect width="1439" height="558" x="0" y="0" fill="url(#SvgjsLinearGradient1003)"></rect><path d="M1396.9 526.4a38.31 38.31 0 1 0-29.79-70.59z" stroke="#d3b714"></path><path d="M1328.99 473.15a11.68 11.68 0 1 0 22.84 4.92z" stroke="#d3b714"></path><path d="M174.23 113.72a43.75 43.75 0 1 0 16.05-86.02z" stroke="#e73635"></path><path d="M1117.03 218.82L1138.96 218.82L1138.96 263.66L1117.03 263.66z" fill="#037b0b"></path><path d="M49.79 382.11 a42.78 42.78 0 1 0 85.56 0 a42.78 42.78 0 1 0 -85.56 0z" fill="#037b0b"></path><path d="M1031.41 469.52a41.25 41.25 0 1 0 73.06-38.31z" stroke="#037b0b"></path><path d="M708.51 121.79a36.94 36.94 0 1 0 70.71 21.42z" stroke="#037b0b"></path><path d="M1061.45 366.82a9.58 9.58 0 1 0 10.33-16.14z" stroke="#d3b714"></path><path d="M1351.9 49.9L1360.75 49.9L1360.75 94.45L1351.9 94.45z" stroke="#e73635"></path><path d="M238.78 171.74L243.2 171.74L243.2 189.15L238.78 189.15z" fill="#037b0b"></path><path d="M573.91 242.05L594.08 242.05L594.08 262.22L573.91 262.22z" stroke="#d3b714"></path><path d="M1338.21 98L1340.04 98L1340.04 104.22L1338.21 104.22z" stroke="#037b0b"></path><path d="M59.59 242.58a41.68 41.68 0 1 0 80.2-22.7z" fill="#d3b714"></path><path d="M1239.9 416.38L1269.43 416.38L1269.43 445.91L1239.9 445.91z" stroke="#d3b714"></path><path d="M1277.28 173.91L1327.7 173.91L1327.7 224.33L1277.28 224.33z" stroke="#e73635"></path><path d="M946.59 255.32L951.72 255.32L951.72 260.45L946.59 260.45z" fill="#d3b714"></path><path d="M1012.9 48.77L1029.26 48.77L1029.26 65.13L1012.9 65.13z" stroke="#d3b714"></path><path d="M763.26 502.77L806.1 502.77L806.1 512.08L763.26 512.08z" stroke="#e73635"></path><path d="M1185.94 219.21a11.93 11.93 0 1 0-1.03 23.84z" stroke="#037b0b"></path><path d="M804.23 76.3a50.51 50.51 0 1 0 95.08-34.12z" stroke="#d3b714"></path><path d="M76.54 483.51a24.37 24.37 0 1 0-3.59-48.61z" fill="#d3b714"></path><path d="M-13.38 63.04 a16.76 16.76 0 1 0 33.52 0 a16.76 16.76 0 1 0 -33.52 0z" fill="#037b0b"></path><path d="M965.73 117.67L973.08 117.67L973.08 125.02L965.73 125.02z" stroke="#d3b714"></path><path d="M1252.54 203.67 a5.75 5.75 0 1 0 11.5 0 a5.75 5.75 0 1 0 -11.5 0z" fill="#037b0b"></path><path d="M515.98 422.96 a10.63 10.63 0 1 0 21.26 0 a10.63 10.63 0 1 0 -21.26 0z" fill="#037b0b"></path><path d="M115.94 186.78L140.97 186.78L140.97 211.81L115.94 211.81z" fill="#d3b714"></path><path d="M402.98 478.8 a44.16 44.16 0 1 0 88.32 0 a44.16 44.16 0 1 0 -88.32 0z" stroke="#037b0b"></path><path d="M844.38 410.8L900.06 410.8L900.06 427.88L844.38 427.88z" stroke="#d3b714"></path><path d="M2.79 446.25L36.24 446.25L36.24 479.7L2.79 479.7z" fill="#037b0b"></path><path d="M984.31 94.21a32.47 32.47 0 1 0 42.65-48.97z" stroke="#e73635"></path><path d="M959.83 337.35L1008.22 337.35L1008.22 346.59L959.83 346.59z" stroke="#d3b714"></path><path d="M243.97 299.08a1.91 1.91 0 1 0 2.4 2.97z" stroke="#037b0b"></path><path d="M669.46 591.87a52.75 52.75 0 1 0 12.59-104.74z" stroke="#037b0b"></path></g><defs><mask id="SvgjsMask1002"><rect width="1439" height="558" fill="#ffffff"></rect></mask><linearGradient x1="100%" y1="50%" x2="0%" y2="50%" gradientUnits="userSpaceOnUse" id="SvgjsLinearGradient1003"><stop stop-color="rgba(39, 37, 45, 1)" offset="0"></stop><stop stop-color="rgba(39, 37, 45, 1)" offset="0.3"></stop><stop stop-color="rgba(39, 37, 45, 1)" offset="0.67"></stop></linearGradient></defs></svg>