<svg xmlns="http://www.w3.org/2000/svg" version="1.1" xmlns:xlink="http://www.w3.org/1999/xlink" xmlns:svgjs="http://svgjs.com/svgjs" width="1440" height="558" preserveAspectRatio="none" viewBox="0 0 1440 558"><g mask="url(&quot;#SvgjsMask3165&quot;)" fill="none"><rect width="1440" height="558" x="0" y="0" fill="url(#SvgjsLinearGradient3166)"></rect><path d="M897.86 278.46L938.16 278.46L938.16 318.76L897.86 318.76z" stroke="#037b0b"></path><path d="M351.83 409.15a34.22 34.22 0 1 0-6.12-68.17z" fill="#037b0b"></path><path d="M623.33 284.57L658.6 284.57L658.6 319.84L623.33 319.84z" fill="#037b0b"></path><path d="M655.25 16.83L682.95 16.83L682.95 44.53L655.25 44.53z" stroke="#d3b714"></path><path d="M870.85 287.88L894.65 287.88L894.65 311.68L870.85 311.68z" fill="#d3b714"></path><path d="M873.93 332.94 a26.95 26.95 0 1 0 53.9 0 a26.95 26.95 0 1 0 -53.9 0z" fill="#d3b714"></path><path d="M851.75 116.63L867.42 116.63L867.42 132.3L851.75 132.3z" stroke="#d3b714"></path><path d="M1267.05 85.9L1296.37 85.9L1296.37 115.22L1267.05 115.22z" stroke="#d3b714"></path><path d="M67.12 2.17 a47.88 47.88 0 1 0 95.76 0 a47.88 47.88 0 1 0 -95.76 0z" fill="#037b0b"></path><path d="M1313.52 197.39L1320.58 197.39L1320.58 243.5L1313.52 243.5z" fill="#037b0b"></path><path d="M175.8 461.58a35.07 35.07 0 1 0-61.64-33.45z" fill="#037b0b"></path><path d="M667.42 318.46a27.78 27.78 0 1 0 44.82-32.82z" stroke="#e73635"></path><path d="M785.75 468.49 a11.58 11.58 0 1 0 23.16 0 a11.58 11.58 0 1 0 -23.16 0z" fill="#037b0b"></path><path d="M1384.11 396.91 a34.22 34.22 0 1 0 68.44 0 a34.22 34.22 0 1 0 -68.44 0z" stroke="#037b0b"></path><path d="M1411.24 58.02L1440.49 58.02L1440.49 87.27L1411.24 87.27z" fill="#037b0b"></path><path d="M277.68 351.64a42.6 42.6 0 1 0-43.23-73.41z" fill="#e73635"></path><path d="M69.98 527.76L110.41 527.76L110.41 568.19L69.98 568.19z" stroke="#d3b714"></path><path d="M399.95 319.94L436.98 319.94L436.98 367.51L399.95 367.51z" fill="#037b0b"></path><path d="M781.61 518.86a33.66 33.66 0 1 0-51.64 43.18z" fill="#e73635"></path><path d="M1249.01 34.7L1262.94 34.7L1262.94 70.99L1249.01 70.99z" fill="#037b0b"></path><path d="M676.04 92.55 a10.34 10.34 0 1 0 20.68 0 a10.34 10.34 0 1 0 -20.68 0z" stroke="#037b0b"></path><path d="M785.29 102.46L793.93 102.46L793.93 111.1L785.29 111.1z" fill="#e73635"></path><path d="M1113.26 350.86L1126.12 350.86L1126.12 363.72L1113.26 363.72z" fill="#037b0b"></path><path d="M1268.98 323.44L1293.39 323.44L1293.39 347.85L1268.98 347.85z" fill="#d3b714"></path><path d="M643.33 37.59L659.76 37.59L659.76 54.02L643.33 54.02z" fill="#e73635"></path><path d="M24.09 255.46a4.68 4.68 0 1 0 9.32 0.92z" fill="#037b0b"></path><path d="M244.79 480.6L295.8 480.6L295.8 531.61L244.79 531.61z" stroke="#d3b714"></path><path d="M170.45 367.89L199.88 367.89L199.88 410.44L170.45 410.44z" fill="#d3b714"></path><path d="M685.16 5.79a2.5 2.5 0 1 0-2.15 4.51z" fill="#037b0b"></path><path d="M1139.22 530.51a40.85 40.85 0 1 0 81.6-4.04z" stroke="#037b0b"></path><path d="M914.93 447.62 a32.01 32.01 0 1 0 64.02 0 a32.01 32.01 0 1 0 -64.02 0z" fill="#d3b714"></path><path d="M1109.42 478.49 a8.48 8.48 0 1 0 16.96 0 a8.48 8.48 0 1 0 -16.96 0z" stroke="#037b0b"></path><path d="M152.39 173.21 a47.85 47.85 0 1 0 95.7 0 a47.85 47.85 0 1 0 -95.7 0z" stroke="#e73635"></path></g><defs><mask id="SvgjsMask3165"><rect width="1440" height="558" fill="#ffffff"></rect></mask><linearGradient x1="100%" y1="50%" x2="0%" y2="50%" gradientUnits="userSpaceOnUse" id="SvgjsLinearGradient3166"><stop stop-color="rgba(39, 37, 45, 1)" offset="0"></stop><stop stop-color="rgba(39, 37, 45, 1)" offset="0.3"></stop><stop stop-color="rgba(39, 37, 45, 1)" offset="0.67"></stop></linearGradient></defs></svg>